 http://www.imdb.com/title/tt1202222/

User Rating:4.2/10 - 456 votes

Action,Comedy,Thriller

Director:Tibor Takács

Cast:Christian Slater/Cuba Gooding Jr./Sarah Ann Schultz, and others.

Plot:
Best-selling author Wes Wilson's self-help book about honesty has saved millions of relationships. But when his fiance is abducted and declared dead, Wes suddenly finds himself hunted by hired killers, beautiful spies, and a ruthless criminal mastermind with a taste for both style and violence. What does Wes have that an international smuggling ring wants? Why did his late bride-to-be keep a secret room full of weapons? And who can he trust when nobody is what he or she seems to be...

Info:

General
Complete name                    : Lies.and.Illusions-AC3-5,1-DVDRip[Eng]2009.avi
Format                           : AVI
Format/Info                      : Audio Video Interleave
File size                        : 1.39 GiB
Duration                         : 1h 32mn
Overall bit rate                 : 2 143 Kbps
Writing application              : VirtualDubMod 1.5.4.1 (build 2178/release)
Writing library                  : VirtualDubMod build 2178/release

Video
Format                           : MPEG-4 Visual
Format profile                   : Simple@L3
Format settings, BVOP            : No
Format settings, QPel            : No
Format settings, GMC             : No warppoints
Format settings, Matrix          : Default
Codec ID                         : XVID
Codec ID/Hint                    : XviD
Duration                         : 1h 32mn
Bit rate                         : 1 688 Kbps
Width                            : 624 pixels
Height                           : 352 pixels
Display aspect ratio             : 16/9
Frame rate                       : 23.976 fps
Resolution                       : 24 bits
Colorimetry                      : 4:2:0
Scan type                        : Progressive
Bits/(Pixel*Frame)               : 0.320
Stream size                      : 1.09 GiB (79%)
Writing library                  : XviD 50

Audio
Format                           : AC-3
Format/Info                      : Audio Coding 3
Codec ID                         : 2000
Duration                         : 1h 32mn
Bit rate mode                    : Constant
Bit rate                         : 448 Kbps
Channel(s)                       : 6 channels
Channel positions                : Front: L C R, Surround: L R, LFE
Sampling rate                    : 48.0 KHz
Stream size                      : 297 MiB (21%)
Alignment                        : Split accross interleaves
Interleave, duration             : 83 ms (2.00 video frames)
Interleave, preload duration     : 500 ms
Language                         : English

Enjoy...